# xmcd
#
# Track frame offsets:
#	150
#	13896
#	28827
#	50227
#	67415
#	84199
#	101385
#	134826
#	153875
#	173880
#	188429
#	204986
#	218908
#
# Disc length: 3163 seconds
#
# Revision: 1
# Processed by: cddbd v1.5.2PL0 Copyright (c) Steve Scherf et al.
# Submitted via: audiograbber 1.83.01
#
DISCID=b80c590d
DTITLE=Alan Jackson - Thirty Miles West
DYEAR=2012
DGENRE=Country
TTITLE0=Gonna Come Back As A Country Song
TTITLE1=You Go Your Way
TTITLE2=Everything But The Wings
TTITLE3=Talk Is Cheap
TTITLE4=So You Don't Have To Love Me Anymore
TTITLE5=Look Her In The Eye And Lie
TTITLE6=Dixie Highway (Feat. Zac Brown)
TTITLE7=She Don't Get High
TTITLE8=Her Life's A Song
TTITLE9=Nothin' Fancy
TTITLE10=Long Way To Go
TTITLE11=Life Keeps Bringin' Me Down
TTITLE12=When I Saw You Leaving (For Nisey)
EXTD=
EXTT0=
EXTT1=
EXTT2=
EXTT3=
EXTT4=
EXTT5=
EXTT6=
EXTT7=
EXTT8=
EXTT9=
EXTT10=
EXTT11=
EXTT12=
PLAYORDER=
